# xmcd
#
# Track frame offsets: 
#        150
#        18710
#        30460
#
# Disc length: 637 seconds
#
# Revision: 0
# Processed by: cddbd v1.5.2PL0 Copyright (c) Steve Scherf et al.
# Submitted via: ExactAudioCopyFreeDBPlugin 1.0
#
DISCID=1b027b03
DTITLE=Rory Block - Lovin' Whiskey
DYEAR=1989
DGENRE=Blues
TTITLE0=Lovin' Whiskey
TTITLE1=God's Gift To Women
TTITLE2=Ain't No Way To Do
EXTD=
EXTT0=
EXTT1=
EXTT2=
PLAYORDER=
